<svg id="_0155_network_1" xmlns="http://www.w3.org/2000/svg" xmlns:xlink="http://www.w3.org/1999/xlink" viewBox="0 0 500 500" data-imageid="network-1-39" imageName="Network 1" class="illustrations_image" style="width: 151px;"><defs><style>.cls-1_network-1-39{fill:url(#linear-gradient);}.cls-1_network-1-39,.cls-2_network-1-39,.cls-3_network-1-39,.cls-4_network-1-39,.cls-5_network-1-39,.cls-6_network-1-39,.cls-7_network-1-39,.cls-8_network-1-39,.cls-9_network-1-39,.cls-10_network-1-39,.cls-11_network-1-39,.cls-12_network-1-39,.cls-13_network-1-39,.cls-14_network-1-39,.cls-15_network-1-39,.cls-16_network-1-39,.cls-17_network-1-39,.cls-18_network-1-39{stroke-width:0px;}.cls-2_network-1-39{fill:url(#linear-gradient-11-network-1-39);}.cls-3_network-1-39{fill:url(#linear-gradient-12-network-1-39);}.cls-4_network-1-39{fill:url(#linear-gradient-13-network-1-39);}.cls-5_network-1-39{fill:url(#linear-gradient-10-network-1-39);}.cls-6_network-1-39{fill:url(#linear-gradient-15-network-1-39);}.cls-7_network-1-39{fill:url(#linear-gradient-14-network-1-39);}.cls-8_network-1-39{fill:url(#linear-gradient-4-network-1-39);}.cls-9_network-1-39{fill:url(#linear-gradient-2-network-1-39);}.cls-10_network-1-39{fill:url(#linear-gradient-3-network-1-39);}.cls-11_network-1-39{fill:url(#linear-gradient-8-network-1-39);}.cls-12_network-1-39{fill:url(#linear-gradient-9-network-1-39);}.cls-13_network-1-39{fill:url(#linear-gradient-7-network-1-39);}.cls-14_network-1-39{fill:url(#linear-gradient-5-network-1-39);}.cls-15_network-1-39{fill:url(#linear-gradient-6-network-1-39);}.cls-16_network-1-39{isolation:isolate;opacity:.24;}.cls-16_network-1-39,.cls-18_network-1-39{fill:#68e1fd;}.cls-17_network-1-39{fill:#fff;}</style><linearGradient id="linear-gradient-network-1-39" x1="900.75" y1="3048.33" x2="891.32" y2="3075.88" gradientTransform="translate(-472.36 3311.85) scale(1 -1)" gradientUnits="userSpaceOnUse"><stop offset="0" stop-color="#000" stop-opacity="0"/><stop offset=".99" stop-color="#000"/></linearGradient><linearGradient id="linear-gradient-2-network-1-39" x1="973.97" y1="3155.46" x2="841.14" y2="3150.57" gradientTransform="translate(-471 3370.83) scale(1 -1)" xlink:href="#linear-gradient-network-1-39"/><linearGradient id="linear-gradient-3-network-1-39" x1="888.53" y1="3189.54" x2="901.8" y2="3078.88" gradientTransform="translate(-471 3370.83) scale(1 -1)" gradientUnits="userSpaceOnUse"><stop offset=".02" stop-color="#fff" stop-opacity="0"/><stop offset=".32" stop-color="#fff" stop-opacity=".39"/><stop offset=".68" stop-color="#fff" stop-opacity=".68"/><stop offset="1" stop-color="#fff"/></linearGradient><linearGradient id="linear-gradient-4-network-1-39" x1="892.95" y1="3110.77" x2="925.85" y2="3098.47" gradientTransform="translate(-471 3370.83) scale(1 -1)" xlink:href="#linear-gradient-network-1-39"/><linearGradient id="linear-gradient-5-network-1-39" x1="918.88" y1="3050.16" x2="902.91" y2="3060.01" xlink:href="#linear-gradient-network-1-39"/><linearGradient id="linear-gradient-6-network-1-39" x1="-5596.25" y1="3084.22" x2="-5603.39" y2="3105.1" gradientTransform="translate(-5522.38 3311.85) rotate(-180)" xlink:href="#linear-gradient-network-1-39"/><linearGradient id="linear-gradient-7-network-1-39" x1="-5539.68" y1="3120.73" x2="-5640.36" y2="3117.03" gradientTransform="translate(-5522.37 3311.85) rotate(-180)" xlink:href="#linear-gradient-network-1-39"/><linearGradient id="linear-gradient-8-network-1-39" x1="-5604.44" y1="3146.57" x2="-5594.38" y2="3062.69" gradientTransform="translate(-5522.37 3311.85) rotate(-180)" xlink:href="#linear-gradient-3-network-1-39"/><linearGradient id="linear-gradient-9-network-1-39" x1="-5601.1" y1="3086.86" x2="-5576.16" y2="3077.53" gradientTransform="translate(-5522.37 3311.85) rotate(-180)" xlink:href="#linear-gradient-network-1-39"/><linearGradient id="linear-gradient-10-network-1-39" x1="331.92" y1="3622.03" x2="351.41" y2="3495.71" gradientTransform="translate(-568.33 3673.52) rotate(8.62) scale(1 -1)" xlink:href="#linear-gradient-network-1-39"/><linearGradient id="linear-gradient-11-network-1-39" x1="367.88" y1="3575.78" x2="368.33" y2="3538.32" gradientTransform="translate(-3238.68 -169.79) rotate(90) scale(1 -1)" xlink:href="#linear-gradient-network-1-39"/><linearGradient id="linear-gradient-12-network-1-39" x1="1320.84" y1="1854.75" x2="1338.86" y2="1738.03" gradientTransform="translate(-476.2 2408.93) rotate(-20.42) scale(1 -1)" xlink:href="#linear-gradient-network-1-39"/><linearGradient id="linear-gradient-13-network-1-39" x1="1358.14" y1="1799.07" x2="1358.56" y2="1764.45" gradientTransform="translate(-1200.32 2026.48) scale(1 -1)" xlink:href="#linear-gradient-network-1-39"/><linearGradient id="linear-gradient-14-network-1-39" x1="871.93" y1="2661.2" x2="872.29" y2="2621.54" gradientTransform="translate(-700.06 2982.07) scale(1 -1)" xlink:href="#linear-gradient-network-1-39"/><linearGradient id="linear-gradient-15-network-1-39" x1="718.41" y1="3090.14" x2="645.71" y2="3014.81" xlink:href="#linear-gradient-network-1-39"/></defs><path id="background_network-1-39" class="cls-16_network-1-39 targetColor" d="M141.49,159.3c-22.96,11.91-48.38,18.33-72,28.89-23.62,10.56-46.44,26.8-56.22,50.84-2.7,6.6-4.32,13.87-3.43,21,2.02,16.18,16.05,27.99,30.19,36.02,30.88,17.55,66.57,24.99,98.07,41.41,13.58,7.08,26.33,15.81,40.44,21.74,34.41,14.46,76,10.4,106.93-10.53,12.46-8.41,23.25-19.31,36.6-26.2,20.8-10.73,45.38-10.54,68.8-9.85,23.42.69,47.85,1.44,69.12-8.39,21.27-9.83,37.98-33.9,31.2-56.34-4.23-14.03-16.47-24.27-29.48-31.03-13.01-6.76-27.27-10.83-40.3-17.53-37.52-19.32-62.51-59-101.96-73.95-31.67-12.09-66.45-5.7-97.54,5.12-13.15,4.62-26.13,3.79-39.29,7.97-14.65,4.65-27.58,13.72-41.14,20.82Z" style="fill: rgb(104, 225, 253);"/><g id="circle_network-1-39"><path class="cls-18_network-1-39 targetColor" d="M238.59,279.8c-65.7,0-117.16-15.2-117.16-34.6s51.46-34.58,117.16-34.58,117.15,15.2,117.15,34.58-51.46,34.6-117.15,34.6ZM238.59,213.75c-61.81,0-114.03,14.41-114.03,31.45s52.22,31.47,114.03,31.47,114.02-14.41,114.02-31.47-52.23-31.45-114.02-31.45Z" style="fill: rgb(104, 225, 253);"/><path class="cls-18_network-1-39 targetColor" d="M242.17,312.6c-53.63,0-104.08-6.47-142.05-18.22-38.55-11.94-59.74-28.04-59.74-45.38s21.23-33.44,59.78-45.38c37.97-11.74,88.42-18.22,142.05-18.22s104.09,6.48,142.05,18.22c38.56,11.94,59.79,28.06,59.79,45.38s-21.23,33.44-59.79,45.38c-37.99,11.75-88.44,18.22-142.08,18.22ZM242.17,188.66c-53.32,0-103.42,6.42-141.08,18.08-36.54,11.3-57.5,26.7-57.5,42.26s20.96,30.96,57.5,42.27c37.66,11.66,87.82,18.07,141.08,18.07s103.43-6.41,141.09-18.07c36.54-11.31,57.49-26.72,57.49-42.27s-20.95-30.96-57.49-42.26c-37.66-11.62-87.76-18.08-141.09-18.08Z" style="fill: rgb(104, 225, 253);"/></g><g id="pc_network-1-39"><path class="cls-18_network-1-39 targetColor" d="M446.96,258.25c-1.22,4.71-6.77,3.89-6.77,3.89,0,0-32.35.6-32.99,0s-.17-2.4-.06-3.09l.06-.24h9.24s4.37-2.31-2.78-12.56c-6.02-8.65,16.67-9.05,24.09-8.94h2.31s8.11,16.22,6.9,20.94Z" style="fill: rgb(104, 225, 253);"/><path class="cls-18_network-1-39 targetColor" d="M443.12,254.94c-1.16,4.7-6.81,3.82-6.81,3.82,0,0-20.51.4-29.2.24l.06-.24h9.24s4.37-2.31-2.78-12.56c-6.02-8.65,16.67-9.05,24.09-8.94,2.31,4.98,6.29,14.29,5.4,17.68Z" style="fill: rgb(104, 225, 253);"/><path class="cls-1_network-1-39" d="M444.44,255.64c-1.21,4.7-8.09,3.13-8.09,3.13,0,0-20.51.4-29.2.24l.06-.24h9.24s4.37-2.31-2.78-12.56c-6.02-8.65,16.67-9.05,24.09-8.94,2.26,4.98,7.56,14.99,6.68,18.37Z"/><rect class="cls-18_network-1-39 targetColor" x="382.61" y="190.71" width="82.2" height="55.16" rx="6.51" ry="6.51" style="fill: rgb(104, 225, 253);"/><rect class="cls-9_network-1-39" x="382.61" y="190.71" width="82.2" height="55.16" rx="6.51" ry="6.51"/><rect class="cls-18_network-1-39 targetColor" x="380.87" y="190.71" width="82.2" height="55.16" rx="6.51" ry="6.51" style="fill: rgb(104, 225, 253);"/><rect class="cls-10_network-1-39" x="380.87" y="190.71" width="82.2" height="55.16" rx="6.51" ry="6.51"/><path class="cls-18_network-1-39 targetColor" d="M463.01,233.88l.06,5.48c0,3.59-2.91,6.51-6.51,6.51,0,0,0,0-.01,0h-69.18c-3.59,0-6.51-2.91-6.51-6.51h0v-5.48h82.15Z" style="fill: rgb(104, 225, 253);"/><rect class="cls-8_network-1-39" x="407.17" y="259.03" width="32.26" height="3.06"/><path class="cls-14_network-1-39" d="M444.44,255.64l.3,5.49c-1.56,1.04-3.49,1.39-5.32.97v-3.07s4.58,1.32,5.01-3.39Z"/><path class="cls-18_network-1-39 targetColor" d="M59.76,223.62c.94,3.57,5.17,2.92,5.17,2.92,0,0,24.54.45,25.01,0s.13-1.83,0-2.31c0-.06,0-.12,0-.17h-7.01s-3.3-1.72,2.11-9.52c4.62-6.56-12.64-6.86-18.26-6.78h-1.72s-6.18,12.29-5.29,15.87Z" style="fill: rgb(104, 225, 253);"/><path class="cls-18_network-1-39 targetColor" d="M62.68,221.11c.91,3.57,5.15,2.91,5.15,2.91,0,0,15.55.3,22.13.17,0-.06,0-.12,0-.17h-7.05s-3.3-1.72,2.11-9.52c4.62-6.56-12.64-6.86-18.26-6.78-1.76,3.77-4.76,10.83-4.09,13.39Z" style="fill: rgb(104, 225, 253);"/><path class="cls-15_network-1-39" d="M61.68,221.7c.91,3.57,6.16,2.38,6.16,2.38,0,0,15.55.3,22.13.17,0-.06,0-.12,0-.17h-7.05s-3.3-1.72,2.11-9.52c4.62-6.56-12.64-6.86-18.26-6.78-1.76,3.71-5.77,11.3-5.1,13.92Z"/><rect class="cls-18_network-1-39 targetColor" x="46.24" y="172.43" width="62.31" height="41.81" rx="4.93" ry="4.93" style="fill: rgb(104, 225, 253);"/><rect class="cls-13_network-1-39" x="46.24" y="172.43" width="62.31" height="41.81" rx="4.93" ry="4.93"/><rect class="cls-18_network-1-39 targetColor" x="47.56" y="172.43" width="62.31" height="41.81" rx="4.93" ry="4.93" style="fill: rgb(104, 225, 253);"/><rect class="cls-11_network-1-39" x="47.56" y="172.43" width="62.31" height="41.81" rx="4.93" ry="4.93"/><path class="cls-18_network-1-39 targetColor" d="M47.59,205.14v4.16c0,2.73,2.21,4.93,4.93,4.93h52.4c2.73,0,4.93-2.21,4.93-4.93h0v-4.16h-62.27Z" style="fill: rgb(104, 225, 253);"/><rect class="cls-12_network-1-39" x="65.48" y="224.22" width="24.45" height="2.32"/></g><g id="laptops_network-1-39"><path class="cls-18_network-1-39 targetColor" d="M320.44,197.29l-31.97-4.77c-1.06-.16-1.88-1.03-1.96-2.1l-2.31-25.99c-.12-1.27.81-2.4,2.08-2.52.19-.02.39-.01.58.02l32.01,4.78c1.08.15,1.91,1.03,1.99,2.11l2.25,25.95c.13,1.27-.79,2.4-2.06,2.53-.2.02-.4.01-.59-.02Z" style="fill: rgb(104, 225, 253);"/><path class="cls-5_network-1-39" d="M318.92,194.33l-28.89-4.31c-.95-.13-1.68-.89-1.79-1.84l-2.17-22.56c-.08-1.13.77-2.11,1.89-2.19.17-.01.33,0,.5.03l28.89,4.31c.95.13,1.69.89,1.79,1.84l2.17,22.57c.08,1.12-.76,2.09-1.88,2.18-.17.01-.34,0-.51-.03Z"/><path class="cls-18_network-1-39 targetColor" d="M289.06,191.61l41.71,6.23c.78.12,1.31.84,1.2,1.62h0s0,0,0,0c-.12.78-.84,1.31-1.62,1.2h0l-41.71-6.23c-.77-.12-1.3-.83-1.19-1.6h0c.1-.77.81-1.31,1.58-1.21,0,0,.02,0,.02,0Z" style="fill: rgb(104, 225, 253);"/><rect class="cls-18_network-1-39 targetColor" x="322.46" y="180" width="2.85" height="36.48" rx="1.28" ry="1.28" transform="translate(79.94 489.27) rotate(-81.5)" style="fill: rgb(104, 225, 253);"/><rect class="cls-2_network-1-39" x="322.46" y="180" width="2.85" height="36.48" rx="1.28" ry="1.28" transform="translate(79.94 489.27) rotate(-81.5)"/><path class="cls-18_network-1-39 targetColor" d="M154.78,240.42l-27.94,10.57c-.93.36-1.98.03-2.53-.8l-13.58-19.93c-.67-.98-.42-2.32.56-2.99.14-.1.29-.18.45-.24l27.94-10.58c.94-.35,1.99-.01,2.55.81l13.53,19.91c.68.99.42,2.34-.57,3.02-.13.09-.28.17-.43.23Z" style="fill: rgb(104, 225, 253);"/><path class="cls-3_network-1-39" d="M152.19,238.72l-25.21,9.56c-.83.36-1.8.08-2.31-.67l-11.89-17.22c-.58-.86-.35-2.02.5-2.6.14-.09.29-.17.44-.22l25.21-9.56c.83-.34,1.79-.06,2.31.67l11.94,17.22c.57.87.32,2.04-.55,2.61-.14.09-.29.16-.44.21Z"/><path class="cls-18_network-1-39 targetColor" d="M126.89,250l36.44-13.8c.68-.26,1.44.08,1.7.77h0c.26.68-.08,1.44-.77,1.7l-36.44,13.8c-.67.27-1.43-.05-1.7-.71,0-.01,0-.02-.01-.03h0c-.27-.67.06-1.43.73-1.7.02,0,.04-.01.05-.02Z" style="fill: rgb(104, 225, 253);"/><rect class="cls-18_network-1-39 targetColor" x="141.11" y="238.31" width="33.71" height="2.63" rx="1.19" ry="1.19" transform="translate(-74.65 71.51) rotate(-20.75)" style="fill: rgb(104, 225, 253);"/><rect class="cls-4_network-1-39" x="141.11" y="238.31" width="33.71" height="2.63" rx="1.19" ry="1.19" transform="translate(-74.65 71.51) rotate(-20.75)"/></g><g id="phone_network-1-39"><rect class="cls-18_network-1-39 targetColor" x="150.24" y="254.09" width="42.82" height="85.28" rx="7.55" ry="7.55" transform="translate(-27.02 17.37) rotate(-5.37)" style="fill: rgb(104, 225, 253);"/><rect class="cls-7_network-1-39" x="150.24" y="254.09" width="42.82" height="85.28" rx="7.55" ry="7.55" transform="translate(-27.02 17.37) rotate(-5.37)"/><rect class="cls-18_network-1-39 targetColor" x="150.15" y="254.01" width="42.82" height="83.46" rx="7.46" ry="7.46" transform="translate(-26.92 17.35) rotate(-5.37)" style="fill: rgb(104, 225, 253);"/><rect class="cls-17_network-1-39" x="152.19" y="255.93" width="38.51" height="74.92" rx="6.7" ry="6.7" transform="translate(-26.7 17.33) rotate(-5.37)"/></g><g id="world_network-1-39"><g id="TWXE3W_network-1-39"><path class="cls-18_network-1-39 targetColor" d="M240.19,184.51c-24.52-.3-44.64,19.33-44.94,43.85-.3,24.52,19.33,44.64,43.85,44.94.47,0,.93,0,1.4,0,24.51-.47,44-20.73,43.53-45.24-.46-23.97-19.87-43.24-43.84-43.54ZM246.78,204.95c-.01-.12.01-.25.07-.36.13-.18.27-.43.45-.47s.38.15.64.28c-.47.47-.27.74.14.95.1.05.18.12.24.21.11.33.25.64.44.92.28.22.58.4.91.53-.27.24-.55.47-.86.67-.29.18-.61.31-.94.4-.27.03-.54.03-.81,0,0-.05,0-.1,0-.15l.55-.35c-.2-.24-.49-.45-.51-.68s.24-.46.4-.73c-.25-.42-.62-.6-.89-.43-.79.53-.84.67-.49,1.24-.51.2-1.01.39-1.53.58-.12-.54.51-1.02,0-1.5.21-.36.61-.58,1.03-.57h.6c.32.02.58-.13.53-.54ZM234.07,193.64c1.04.15,2.08.22,3.12.3.38.07.78-.05,1.05-.34.12-.15.39-.17.6-.21.81-.13,1.63-.28,2.44-.36.43-.06.86-.06,1.29,0,.99.15,1.99.35,2.97.53.16.02.31.09.44.2-.4,0-.83,0-1.24.09-.26.02-.52.08-.76.18-.37.18-.72.38-.74.94.01.56-.38,1.04-.92,1.16-.54.2-1.07.43-1.58.7-.27.13-.27.28,0,.43s.75.4,1.16.65q-.64.24-1.95-.37c.18.32.37.62.57.94-.84.22-1.72.47-2.6.67-.82.14-1.58.5-2.21,1.04-.64.45-1.39.71-2.17.74-.4.08-.74.15-.74.69,0,.2-.18.43-.35.59-.22.2-.46.38-.72.52-.62.45-1.49.31-1.94-.32-.18-.24-.27-.54-.26-.84-.03-.28-.03-.56,0-.84.09-.33.22-.66.39-.96.09-.12.2-.24.31-.34.83-.68.95-1.91.27-2.75-.23-.28-.52-.48-.86-.6-.63-.38-1.33-.61-2.06-.69-.25-.07-.48-.19-.69-.34.98-.16,1.93-.29,2.85-.46.39-.12.78-.26,1.16-.43.99-.45,2.07-.63,3.15-.53h.01ZM243.79,200.37c0,.23-.11.45-.29.59-.37.22-.75.42-1.16.58-.37.19-.83.09-1.09-.24-.13-.15-.39-.2-.59-.29,0-.05,0-.11,0-.16.19-.09.38-.17.58-.24.64-.17,1.25-.34,1.87-.49.2-.07.55-.07.64.25h.03ZM221.68,195.03c.29-.09.59-.15.9-.23s.7-.15.84-.6c.09-.19.25-.32.45-.38l.44-.08c.46-.09.94-.17,1.41-.24.39-.02.78-.07,1.16-.16.68-.26,1.42-.37,2.15-.32.23.01.45.01.68,0h.66c0,.05,0,.11,0,.16-.79.61-1.72,1.01-2.7,1.16-1.36.23-2.66.74-3.81,1.5-.37.23-.74.42-1.02-.14h0c0-.1-.25-.16-.42-.18-.36-.03-.71-.1-1.06-.18.09-.11.2-.21.31-.29h.01ZM219.37,196.3s-.07,0-.13-.07c.35-.58.72-.75,1.31-.47.57.29,1.22.34,1.83.14.03.03.06.06.09.09-.09.13-.15.31-.27.36s-.59.14-.89.24c-.14.06-.24.17-.28.31,0,.07.14.24.24.28l.39.1,3.1.88c.1.06.17.16.2.28,0,.16-.03.31-.07.46-.18.82,0,1.16.89,1.16.02.3-.19.56-.49.61-.55.14-1.16.32-1.64.5-.27.08-.53.16-.45.53,0,.09-.05.17-.12.23-.47.35-1.12.35-1.59,0-.3-.33-.27-.84.06-1.14.11-.1.25-.17.41-.2.32-.08.67-.1,1.01-.2.15-.03.28-.12.37-.25,0-.08-.1-.28-.21-.38-.64-.6-1.44-1-2.31-1.16-.25,0-.53-.07-.8-.09-.62,0-1.26-.1-1.9-.17-.27,0-.6,0-.62-.4-.06-.31.14-.6.45-.66.05,0,.09-.01.14,0,.42-.01.84-.06,1.26-.13.18,0,.45-.16.47-.29.01-.35-.17-.57-.5-.57l.05.02ZM224.86,208.57c.16.18.45.47.4.62-.08.33-.41.54-.74.47-.56-.07-1.13-.12-1.7-.13.49-.71,1.18-1.25,1.99-1.55l-.4.36c.15.05.28.12.4.22h.05ZM226.42,248.12c-.46.3-.87.65-1.25,1.04-.22.35-.36.75-.42,1.16-.16.74-.37,1.47-.61,2.18-.17.4-.67.67-.98,1.04-.49.65-1.39.83-2.09.42-.17.5.16.82.37,1.16q.3.54-.22.9c-.46.36-.9.75-1.32,1.16-.32.29-.45.74-.34,1.16,0,.39-.05.78-.15,1.16-.05.19-.08.39-.08.59,0,.38.16.75.21,1.16.08.64.13,1.29.18,1.94,0,.24.09.39.38.42.15.04.27.13.34.27.17.37.32.74.47,1.16-.4.32-.99.25-1.31-.15,0-.01-.02-.02-.03-.03-.24-.44-.62-.79-1.09-.97-.76-.33-1.37-.92-1.72-1.68-.51-.74-.77-1.62-.74-2.52.15-.64-.2-1.29-.81-1.51-.13,0-.21-.28-.23-.44-.07-.62-.1-1.27-.16-1.9-.13-1.35-.29-2.69-.37-4.03v-4.38c-.1-1.2-.92-2.22-2.07-2.57-.63-.12-1.07-.68-1.04-1.32.02-.56-.29-1.08-.8-1.33-.67-.37-1.18-.98-1.42-1.71-.09-.22-.23-.42-.4-.58-.36-.35-.52-.86-.4-1.35.02-.33,0-.67-.07-.99-.05-.22-.07-.45-.06-.67.09-.65.33-1.27.69-1.81.4-.58.73-1.21.98-1.87.3-.73.05-1.57-.59-2.03-.21-.09-.46-.09-.67,0-.43.28-.99.25-1.39-.08-.83-.52-1.51-1.25-1.98-2.11-.08-.12-.2-.21-.34-.27-.2-.08-.42-.13-.64-.14-.58-.04-1.13-.31-1.51-.75-.47-.49-1.14-.74-1.81-.67-.09.02-.19.02-.28,0-1.35-.35-2.58-1.06-3.55-2.06-.29-.39-.4-.89-.3-1.36.35-2.7.96-5.37,1.83-7.95,1.31-3.98,3.19-7.74,5.59-11.17.89-1.28,1.92-2.5,2.89-3.73.14-.18.29-.28.5-.13.29.18.64.23.97.14.8-.09,1.61-.06,2.38-.22.93-.2,1.85-.49,2.73-.86.66-.38,1.11-1.04,1.21-1.79.05-.21.12-.42.21-.62q.23-.76,1.01-.59c.55.14,1.16.27,1.62.37-.45.16-.92.31-1.38.5s-.31.29-.12.51.61.77.94,1.16c.1.09.34.17.42.13.65-.26,1.36-.35,2.06-.28-.18.31-.39.59-.64.86-.25.19-.54.32-.86.37-.8.16-1.62.27-2.43.39-.1.56-.59.97-1.16.96-1.05.17-2.03.62-2.84,1.31-.6.33-.86,1.06-.59,1.69.08.25.16.59.58.37.06,0,.2,0,.29.08.39.21.76.43,1.16.62s.65.4,1.07.25h.22c-.1.65-.21,1.22-.32,1.87.46.02.9-.19,1.16-.58.75-1.16,1.55-2.15,2.31-3.21.12-.15.24-.31.34-.47h0c.44-.84,1.39-1.28,2.31-1.05.53.08.89.2.84.83,0,.09.25.25.39.28.71.05,1.41-.11,2.02-.47.04.1.06.2.08.3.02.14.02.28,0,.42-.29,1.08.27,2.21,1.31,2.63l.21.1c-.77.73-1.77,1.17-2.83,1.22-.73,0-1.46.19-2.09.55-.53.25-1.08.46-1.64.62-.2.12-.38.27-.53.44l.07.14,2.09-.18c-.08.51,0,.81.54.86.2,0,.37.3.62.51-.89.17-1.35,1.16-2.5.92l.9-.83c-.42-.47-.53-.52-1.09-.16s-1.05.77-1.58,1.16c-.14.1-.27.27-.42.29-.92.17-1.38.94-1.98,1.54l-.13.13c-.24.32-.6.51-.99.54-.18,0-.36.06-.5.18-.16.14-.27.34-.3.55.07.8-.36,1.55-1.09,1.9-.64.33-1.25.72-1.83,1.16-.5.51-.64,1.27-.36,1.93.22.45.22.98,0,1.43,0,.12-.31.21-.49.21s-.29-.16-.32-.29c-.14-.58-.24-1.16-.38-1.76-.08-.2-.18-.38-.3-.55h-.12v.66s-.07.07-.12.09c-.16-.17-.3-.35-.46-.5-.22-.21-.46-.38-.73-.53-.28-.14-.62-.02-.76.25-.29.37-.61.72-.9,1.05-.24-.29-.49-.57-.76-.83-.11-.1-.27-.14-.42-.1-.56.09-1.07.38-1.43.82-.37.46-.79.87-1.25,1.25-.42.3-.55.87-.3,1.32.05.2.05.4,0,.6-.22,1.12.47,2.22,1.57,2.52.58.2,1.22-.05,1.51-.59.12-.25.2-.52.31-.77.09-.29.4-.46.69-.37.03,0,.05.02.07.03.18.19.27.45.23.7-.1.44-.23.87-.39,1.28-.15.49,0,.69.45.81s.74.12,1.16.16c.36-.02.66.25.69.6,0,.06,0,.13-.02.19-.05.55-.05,1.1,0,1.64.09.32.26.6.5.83.18.11.4.11.58,0,.34-.23.78-.27,1.16-.1.14.06.3.09.44.14.67.16.84,0,1.31-.45.29-.29.63-.52,1.01-.69.12-.03.24,0,.32.09.06.1.06.22,0,.31-.37.32-.17.49.15.62l.79.34c-.51-.82.16-1.1.46-1.59.12.09.24.15.35.24.43.48,1.06.73,1.71.68h.09c.86,0,1.69.35,2.31.95.87.75,1.92,1.28,3.04,1.53.49.08.91.39,1.16.82.21.35.47.66.68.99.34.53.23.9-.32,1.16l-.53.27c.14.27.31.35.57.2.19-.11.39-.19.6-.24.15,0,.31.13.44.23s-.07.18-.1.29-.07.25,0,.27c.1.06.21.09.32.08.09-.01.18-.06.24-.13.36-.41.98-.44,1.39-.08.03.03.06.05.08.08.06.06.17.09.17.14.07.77.59.46.92.34.33-.13.69-.1,1.01.06.8.35,1.64.62,2.48.92.25.07.43.29.44.55.18,1.32-.24,2.65-1.16,3.63-.07.09-.15.16-.25.2-.37.16-.39.46-.4.8,0,.86-.04,1.72-.13,2.58-.11.53-.29,1.04-.54,1.51-.18.39-.37.8-.99.69-.2,0-.39.06-.54.18-.15.03-.27.13-.36.2ZM272.94,244.66c-.35.86-.55,1.78-.84,2.66-.09.26-.22.51-.38.74q-.43.82-1.32.66c-.71-.24-1.09-1.01-.86-1.72.23-.29.43-.61.58-.95.09-.38.09-.78,0-1.16-.03-.54.28-1.04.79-1.25.13-.02.25-.07.35-.16.44-.44.89-.9,1.31-1.36.1-.14.18-.3.24-.46.4.96.44,2.02.12,3h.02ZM281.36,221.8c-.26-.33-.67-.5-1.09-.46-1.43.08-2.86-.14-4.19-.66-.96-.24-1.87-.63-2.72-1.16-.69-.36-1.43-.61-2.2-.74.04.12.07.24.08.37-.17,1.06.62,1.56,1.24,2.17.27.25.52.52.81.83l1.84-.5c.44-.14.93.05,1.16.45.32.38.66.74,1.03,1.07.32.36.24.45-.13.73-1.01.56-1.92,1.28-2.69,2.14-.09.13-.2.23-.34.31-.59.38-1.16.74-1.77,1.16-.78.44-1.76.17-2.21-.61-.04-.07-.08-.15-.11-.22-.26-.85-.7-1.64-1.28-2.31-.29-.43-.52-.89-.68-1.38-.24-.51-.65-.91-1.16-1.16-.47-.17-.84-.56-.98-1.04-.23-.66-.57-1.31-.84-1.96q-.66.28-.47.92c.32,1.12.81,2.18,1.44,3.15,1.11,1.51,2.04,3.13,2.77,4.85.16.46.28.96.46,1.41.28.68.59.76,1.22.39.07-.05.14-.08.22-.09h2.5c-.1.67-.23,1.33-.4,1.99-.15.55-.41,1.07-.79,1.5-.58.49-1.19.94-1.84,1.33-.16.1-.3.25-.39.42-.72,1.32-1.4,2.63-2.1,3.94-.18.34-.24.6,0,.88.98,1.05.69,2.31.7,3.59,0,.14-.22.31-.38.4-.8.35-1.51.87-2.09,1.53-.23.28-.39.62-.46.97-.14,1.06-.48,2.09-1.01,3.02-.8,1.35-1.5,2.77-2.23,4.16-.12.31-.41.53-.74.55l-2.14.13c-.31,0-.61.09-.92.12-.14.01-.28-.03-.4-.1-.25-.2-.47-.44-.67-.61.01-.71-.17-1.42-.53-2.03-.14-.22-.29-.44-.46-.64-.47-.68-.73-1.48-.73-2.31-.04-.46-.18-.9-.4-1.29-.53-.81-.86-1.73-.97-2.69,0-.54.1-1.08.29-1.58.07-.22.16-.43.28-.62.22-.43.26-.93.12-1.4-.34-1.6-1.02-3.11-1.99-4.43-.21-.36-.21-.8,0-1.16.15-.31.32-.6.5-.89.17-.25.16-.46-.15-.58-.31-.09-.54-.34-.6-.66,0-.09-.27-.23-.39-.22-.63.07-1.25-.16-1.69-.61-.22-.22-.7-.22-1.09-.24-.28.01-.55.07-.81.16l-3.8.91c-.62.14-1.27-.07-1.7-.54-.11-.12-.24-.24-.37-.34-.56-.33-.91-.92-.92-1.57-.05-.28-.23-.52-.49-.65-1.16-.37-1.32-1.41-1.63-2.31-.04-.28.04-.57.22-.8.3-.27.39-.7.22-1.06-.43-.96-.34-2.07.24-2.95.29-.64.74-1.19,1.31-1.61.22-.15.28-.53.49-.7.64-.59,1.09-1.35,1.29-2.2.18-.34.43-.64.74-.88.46-.44.96-.84,1.42-1.28.25-.23.43-.25.61.07.09.13.23.21.38.22l2.1-.28c.2-.06.41-.1.62-.13,1.01.02,2.02-.2,2.94-.64.21-.08.45-.08.66,0,.07,0,.07.31.06.49,0,.48.24.94.64,1.22l1.03.99c.07.06.15.15.23.16.69.12,1.4.24,2.11.3.35,0,.58-.13.69-.55s.47-.57.72-.84c0,.05,0,.1,0,.15.15.15.31.29.49.4.37.21.75.37,1.16.5.3.05.61.05.91,0,.17-.02.35-.02.52,0,.74.1,1.47.2,2.21.35.24.06.49-.02.66-.21.66-.34.99-1.11.76-1.83-.07-.31-.12-.63-.15-.95-.47-.18-.99-.13-1.42.12-.53.35-1.22.28-1.68-.15-.73-.45-1.27-1.16-1.51-1.99.72.36,1.01-.08,1.34-.72-.89.21-1.69.37-2.47.59-.27.06-.43.33-.37.6.01.06.04.12.07.17.06.09.09.19.08.3-.03.18-.09.35-.16.52-.22-.09-.54-.13-.64-.31s-.22-.59-.59-.7c-.06-.03-.09-.08-.1-.14.07-.75-.59-1.16-.9-1.66-.14-.14-.32-.22-.52-.22-.49,0-.95-.23-1.24-.64-.11-.17-.25-.32-.42-.44-.24-.18-.54-.31-.77,0-.24.21-.27.57-.06.81.02.02.04.04.06.06.43.51.97.9,1.58,1.16.38.17.68.49.82.89-.54.44-1.33.35-1.77-.19-.07-.09-.14-.2-.18-.31-.15-.22-.32-.42-.51-.61-.29-.39-.61-.75-.96-1.09-.47-.43-1.4-.46-1.5.36-.02.09-.04.17-.07.25l-.31-.09c-.55-.21-1.18.03-1.44.55-.12.17-.29.32-.42.49-.13.12-.24.27-.31.44-.16.68-.7,1.21-1.39,1.35-.88.15-1.77.22-2.66.22-.19-.05-.34-.2-.39-.38-.07-.61-.07-1.23,0-1.85.14-.64.72-1.08,1.38-1.03h1.87c.23,0,.38-.07.36-.36-.01-.11-.01-.22,0-.32.13-.74.09-.82-.58-1.21-.2-.12-.42-.2-.61-.31s-.22-.17-.21-.25c.02-.12.11-.21.22-.25.23-.07.47-.11.72-.13.99.02,1.9-.55,2.31-1.46.19-.52.67-.89,1.22-.94.89-.14,1.05-.37,1.16-1.28.06-.24.14-.46.24-.68h.18c.15.31.28.63.38.96.05.35.32.62.67.68.34.03.68.03,1.02,0,.59-.08,1.16-.2,1.74-.28.21,0,.34,0,.4-.31s.35-.42.54-.61.46-.29.47-.66c.12-.42.5-.7.94-.72.19.04.35.15.46.31.11.22.2.45.27.68.62-.56.88-1.41.67-2.22-.23.07-.47.12-.72.15-.34.05-.68.05-1.02,0-.97-.21-1.16-.66-.6-1.47.18-.29.39-.87.3-.92-.37-.28-.7.07-.96.3-.63.51-1.09,1.2-1.32,1.98-.18.69-.46,1.34-.83,1.94-.15.25-.64.36-.98.4-.13,0-.34-.28-.47-.46-.13-.2-.25-.41-.36-.62,0,.05,0,.1,0,.15l-2.06.1c-.03-.09-.06-.19-.08-.29-.3-1.48-.44-1.28.99-1.85.44-.24.83-.56,1.16-.94l.97-.83c.07-.05.12-.11.17-.17.97-1.29,2.42-1.5,3.87-1.73,1.31-.05,2.61.18,3.81.68l2.08.61c-.95.76-1.8,0-2.61.14,0,0-.06.09,0,.1.46.51.96.98,1.48,1.42.35.18.78.03.96-.32.03-.05.04-.11.06-.16.08-.29.21-.43.52-.43.4,0,.75-.25.9-.62.16-.31.37-.45.7-.32,0,.36.12.52.47.4.14-.04.26-.1.38-.18.41-.25.9-.36,1.39-.31.68-.04,1.35-.18,1.99-.42.61-.16.94-.1,1.25.24,2.87,2.97,5.3,6.33,7.23,9.98,2.31,4.33,3.88,9.02,4.62,13.87,0,.05,0,.1,0,.15-1.07.07-1.59-.73-2.14-1.33h.02Z" style="fill: rgb(104, 225, 253);"/><path class="cls-17_network-1-39" d="M283.49,222.97c-1.1.23-1.58-.57-2.16-1.16-.25-.34-.67-.52-1.09-.46-2.43,0-4.83-.64-6.93-1.86-.68-.37-1.43-.62-2.2-.73.04.11.07.23.08.35-.17,1.07.61,1.57,1.24,2.18.27.25.51.52.81.83l1.84-.5c.44-.14.92.04,1.16.44.31.38.65.75,1.02,1.09.34.36.25.46-.13.73-1,.57-1.91,1.29-2.68,2.14-.09.12-.2.22-.34.3-.59.39-1.16.76-1.77,1.16-.77.45-1.75.19-2.2-.58-.04-.08-.08-.16-.11-.24-.26-.85-.7-1.64-1.28-2.31-.29-.42-.52-.88-.68-1.36-.22-.53-.63-.97-1.16-1.21-.47-.18-.83-.55-.98-1.03-.23-.68-.55-1.32-.84-1.98q-.66.28-.49.92c.33,1.11.82,2.18,1.46,3.15,1.11,1.51,2.04,3.13,2.77,4.85.16.46.28.96.46,1.41.29.68.59.76,1.22.39.06-.05.13-.08.21-.09h2.51c-.14.68-.21,1.36-.4,2-.15.55-.41,1.06-.79,1.49-.58.49-1.19.93-1.84,1.33-.16.11-.3.25-.4.42-.7,1.31-1.38,2.63-2.09,3.94-.18.34-.24.6,0,.88.97,1.05.69,2.31.7,3.59,0,.13-.22.31-.38.4-.79.36-1.51.88-2.09,1.53-.23.28-.39.62-.46.97-.13,1.06-.47,2.09-1.02,3.02-.79,1.36-1.49,2.77-2.21,4.16-.13.31-.42.53-.75.55-.72,0-1.42.07-2.14.13-.31,0-.61.09-.92.12-.14.01-.28-.02-.39-.1-.27-.2-.49-.44-.68-.61,0-.71-.18-1.41-.52-2.03-.15-.22-.3-.44-.47-.65-.46-.66-.72-1.44-.73-2.24-.04-.46-.17-.91-.4-1.31-.53-.81-.87-1.73-.98-2.69,0-.54.12-1.07.31-1.57.06-.23.15-.45.28-.65.2-.43.24-.93.09-1.39-.34-1.6-1.01-3.11-1.98-4.43-.21-.36-.21-.8,0-1.16.15-.31.32-.6.51-.89.17-.27.16-.46-.16-.58-.31-.08-.54-.34-.58-.66-.09-.13-.24-.22-.4-.22-.62.06-1.24-.16-1.68-.61-.33-.19-.71-.27-1.09-.24-.28.01-.56.07-.82.16l-3.8.91c-.62.13-1.27-.07-1.7-.53-.11-.13-.24-.24-.37-.35-.56-.34-.9-.93-.92-1.58-.05-.28-.23-.51-.49-.64-1.16-.37-1.31-1.41-1.62-2.31-.05-.28.03-.57.21-.79.3-.27.38-.7.21-1.06-.41-.96-.32-2.07.25-2.95.29-.64.74-1.19,1.31-1.61.22-.15.28-.53.49-.7.64-.59,1.09-1.35,1.29-2.2.18-.34.43-.64.74-.88.46-.44.96-.84,1.42-1.28.25-.23.43-.27.62.07.08.13.22.21.37.22.69-.08,1.4-.18,2.1-.29.21-.06.42-.09.64-.12,1.01.02,2.01-.2,2.92-.64.21-.08.44-.08.65,0,.08,0,.08.32.07.49,0,.49.24.94.64,1.22.34.34.69.66,1.04.98.06.07.13.16.21.17.7.12,1.41.24,2.11.3.36,0,.59-.13.72-.55s.45-.57.69-.84l.07.15c.15.15.32.29.5.4.37.21.75.37,1.16.5.3.04.61.04.91,0,.17-.02.35-.02.52,0,.73.1,1.48.2,2.21.35.24.05.49-.03.66-.21.66-.34.99-1.11.76-1.83-.07-.31-.11-.62-.14-.94-.47-.18-.99-.14-1.43.1-.53.34-1.22.28-1.68-.15-.73-.45-1.27-1.16-1.51-1.99.7.36,1.01-.08,1.34-.72-.89.21-1.69.37-2.47.6-.26.05-.43.31-.38.57.01.06.04.12.08.18.05.09.08.2.08.31-.04.17-.09.34-.15.51-.23-.09-.55-.14-.65-.3s-.23-.6-.58-.72c-.06-.02-.1-.08-.12-.14.07-.75-.59-1.16-.9-1.66-.07-.14-.34-.21-.52-.22-.49,0-.95-.24-1.24-.64-.11-.17-.25-.32-.42-.44-.24-.2-.54-.32-.79,0-.24.2-.27.56-.07.8.02.02.04.05.07.07.43.51.97.9,1.58,1.16.38.17.68.49.82.89-.54.44-1.33.35-1.77-.19-.07-.09-.14-.2-.18-.31-.15-.22-.32-.42-.5-.61-.3-.38-.63-.75-.97-1.1-.47-.42-1.4-.45-1.5.37,0,.09-.03.17-.07.25l-.31-.09c-.55-.21-1.17.02-1.44.54-.12.18-.29.32-.42.5-.14.13-.25.28-.32.45-.15.67-.69,1.19-1.36,1.33-.88.16-1.78.24-2.68.23-.19-.06-.33-.21-.38-.39-.07-.61-.07-1.23,0-1.84.12-.64.7-1.08,1.35-1.03h1.87c.24,0,.39-.08.37-.36-.01-.11-.01-.22,0-.32.13-.73.09-.82-.58-1.21-.2-.12-.42-.2-.61-.31s-.22-.17-.21-.25c.02-.12.11-.21.22-.25.24-.07.48-.11.73-.13.99.03,1.91-.55,2.31-1.46.19-.52.67-.89,1.22-.94.89-.14,1.04-.37,1.16-1.28.06-.23.14-.46.24-.68h.2c.15.31.27.63.37.96.09.38.29.64.67.67.34.04.68.04,1.02,0,.59-.07,1.16-.18,1.74-.25.22,0,.35,0,.42-.32s.34-.42.53-.61.46-.29.47-.67.61-.75.95-.7c.19.05.35.16.45.32.12.21.2.44.27.67.6-.57.86-1.41.67-2.22-.24.07-.48.12-.73.15-.33.05-.67.05-1.01,0-.97-.21-1.16-.65-.6-1.47.18-.28.38-.87.3-.94-.37-.27-.7.08-.96.31-.63.51-1.09,1.2-1.32,1.98-.18.69-.46,1.34-.83,1.94-.16.25-.64.36-.98.4-.14,0-.34-.28-.47-.46-.13-.2-.25-.41-.36-.62v.15l-2.06.1c0-.12-.07-.2-.09-.29-.29-1.49-.43-1.28.99-1.85.43-.25.82-.56,1.16-.92l.97-.86c.06-.04.12-.09.17-.15.97-1.31,2.42-1.51,3.87-1.74,1.31-.05,2.62.19,3.82.69.65.17,1.29.38,2.07.6-.94.75-1.8,0-2.62.14v.1c.47.5.96.97,1.49,1.41.36.27.9,0,1.03-.47s.2-.43.5-.43c.4,0,.77-.25.92-.62.15-.31.36-.45.69-.32,0,.37.12.52.47.4.13-.04.26-.11.37-.18.42-.25.92-.36,1.41-.31.67-.04,1.34-.17,1.98-.4.42-.21.93-.12,1.26.22,2.86,2.98,5.3,6.34,7.23,10,2.29,4.33,3.83,9.02,4.56,13.87l.06.02Z"/><path class="cls-17_network-1-39" d="M214.46,205.96l-.32,1.86c.46.03.91-.2,1.16-.59.75-1.07,1.55-2.13,2.31-3.19.13-.16.24-.32.35-.5.44-.84,1.39-1.28,2.31-1.05.53.08.9.2.86.83,0,.09.23.25.38.28.7.05,1.4-.12,2.01-.47.04.1.07.2.09.3.02.14.02.28,0,.42-.29,1.08.27,2.2,1.31,2.62l.21.1c-.77.73-1.77,1.17-2.83,1.24-.73,0-1.45.19-2.08.55-.54.25-1.09.45-1.65.62-.2.12-.37.27-.53.44l.07.14,2.09-.18c-.08.51,0,.81.54.87.2,0,.38.28.64.49-.91.18-1.36,1.16-2.5.94l.89-.83c-.43-.46-.53-.51-1.09-.16s-1.05.77-1.58,1.16c-.14.1-.27.27-.42.3-.92.16-1.38.92-1.96,1.53-.28.37-.69.62-1.16.67-.18,0-.36.06-.5.18-.16.14-.27.34-.3.55.08.8-.36,1.55-1.09,1.88-.64.34-1.25.73-1.83,1.16-.5.51-.64,1.27-.35,1.92.21.46.21.99,0,1.44,0,.12-.31.21-.49.22s-.28-.17-.31-.3c-.15-.58-.24-1.16-.39-1.76-.08-.2-.18-.39-.3-.57l-.12.06v.67l-.12.08c-.15-.17-.3-.33-.46-.49-.22-.21-.46-.39-.73-.54-.28-.14-.61-.03-.76.24-.28.37-.58.72-.9,1.05-.24-.29-.49-.56-.76-.82-.12-.1-.28-.13-.43-.1-.55.09-1.05.38-1.41.81-.37.46-.79.87-1.25,1.25-.43.3-.57.88-.31,1.34.05.19.05.39,0,.58-.22,1.12.47,2.23,1.57,2.53.58.2,1.22-.05,1.51-.59.12-.25.21-.52.31-.77.09-.29.4-.46.69-.37.03,0,.05.02.07.03.16.08.27.47.23.7-.1.44-.24.87-.4,1.29-.15.47,0,.68.46.8s.74.12,1.16.16c.36-.02.67.27.69.63,0,.06,0,.12-.02.18-.06.54-.06,1.08,0,1.62.09.32.26.62.5.86.18.09.4.09.58,0,.34-.24.78-.28,1.16-.1l.45.12c.66.16.84,0,1.28-.44.3-.28.64-.52,1.02-.69.11-.03.24,0,.32.08.06.1.06.22,0,.32-.36.32-.16.49.16.62l.79.32c-.5-.81.16-1.09.46-1.57.12.06.23.14.34.23.44.48,1.08.73,1.73.68.89-.01,1.74.33,2.38.95.87.76,1.92,1.28,3.05,1.53.49.09.91.39,1.16.82.21.35.47.66.69.99.26.3.23.75-.07,1.01-.08.07-.17.12-.26.14l-.53.24c.15.28.3.36.57.21.18-.11.39-.19.6-.23.16.02.32.1.44.21,0,0-.07.2-.1.3s-.08.25,0,.28c.1.06.21.09.32.08.09-.02.18-.07.24-.14.35-.41.96-.45,1.37-.1.04.03.07.06.1.1.06,0,.17.08.17.14.07.76.59.45.92.32.32-.13.69-.11.99.06.82.35,1.65.64,2.5.91.26.07.44.3.45.57.17,1.32-.25,2.64-1.16,3.62-.06.09-.15.17-.25.21-.37.16-.4.46-.4.81,0,.86,0,1.72-.13,2.57-.11.53-.3,1.04-.54,1.51-.18.39-.37.8-.99.69-.28,0-.64.23-.91.43-.46.28-.88.63-1.25,1.03-.21.35-.36.75-.42,1.16-.16.74-.36,1.47-.61,2.18-.17.42-.67.68-.98,1.04-.48.67-1.39.85-2.09.43-.17.51.16.82.36,1.16.31.54.31.53-.21.9-.46.36-.9.75-1.32,1.16-.31.3-.44.74-.35,1.16,0,.39-.05.78-.15,1.16-.05.19-.08.38-.08.58,0,.38.17.76.22,1.16.08.65.13,1.29.18,1.93,0,.24.09.4.39.43.12,0,.27.15.32.27.17.36.31.74.47,1.16-.42.32-1.02.24-1.34-.18,0,0,0,0,0,0-.24-.44-.62-.79-1.09-.97-.76-.33-1.36-.92-1.7-1.68-.52-.73-.78-1.62-.74-2.52.14-.64-.21-1.28-.82-1.51-.12,0-.21-.28-.23-.43-.07-.64-.1-1.27-.16-1.91-.13-1.35-.29-2.69-.37-4.03v-4.39c-.1-1.2-.92-2.21-2.07-2.55-.63-.12-1.07-.68-1.04-1.32.01-.56-.3-1.08-.8-1.33-.67-.37-1.18-.98-1.42-1.71-.09-.21-.23-.4-.39-.57-.37-.35-.53-.87-.42-1.36.02-.33,0-.67-.07-.99-.05-.22-.07-.45-.06-.68.1-.64.33-1.26.69-1.8.4-.58.73-1.21.98-1.87.29-.73.05-1.57-.59-2.03-.21-.1-.45-.1-.66,0-.44.27-.99.23-1.4-.08-.83-.53-1.51-1.26-1.98-2.13-.08-.12-.2-.22-.34-.28-.21-.07-.42-.11-.64-.14-.58-.03-1.13-.3-1.51-.74-.47-.49-1.14-.74-1.81-.67-.09.02-.19.02-.28,0-1.35-.35-2.57-1.07-3.54-2.07-.3-.39-.41-.89-.31-1.36.35-2.7.96-5.35,1.81-7.94,1.31-3.98,3.2-7.75,5.6-11.19.89-1.29,1.92-2.48,2.88-3.73.15-.18.3-.27.51-.12.3.17.65.22.98.13.79-.09,1.59-.06,2.31-.22.94-.2,1.86-.48,2.74-.86.66-.38,1.12-1.04,1.22-1.79.06-.21.13-.42.18-.62q.23-.76,1.03-.58l1.61.36c-.45.16-.92.31-1.38.5-.27.1-.31.28-.12.51s.61.79.95,1.16c.1.11.25.16.4.14.65-.26,1.35-.36,2.05-.28-.17.31-.38.6-.62.86-.25.19-.54.32-.86.37-.8.16-1.62.27-2.43.39-.09.57-.58.98-1.16.97-1.04.16-2.02.61-2.83,1.29-.61.32-.87,1.05-.6,1.69.08.25.16.58.58.38.07,0,.2,0,.29.08.38.2.76.42,1.16.61s.65.4,1.07.27c.08-.05.17-.05.25-.02Z"/><path class="cls-17_network-1-39" d="M226.81,195.12c.99-.16,1.94-.29,2.87-.47.4-.11.78-.25,1.16-.42.99-.48,2.1-.69,3.2-.6,1.03.15,2.07.22,3.11.3.39.08.79-.06,1.06-.35.1-.14.39-.16.6-.2.81-.13,1.62-.28,2.44-.36.43-.06.86-.06,1.29,0,.99.16,1.99.35,2.98.53.16.02.31.09.43.2-.42,0-.83,0-1.24.09-.26.02-.52.08-.76.18-.37.18-.72.39-.73.94-.01.55-.4,1.03-.94,1.16-.54.21-1.07.44-1.58.7-.28.13-.28.28,0,.43l1.16.64q-.64.25-1.95-.35l.57.92c-.86.22-1.72.47-2.6.67-.81.15-1.57.51-2.21,1.04-.64.45-1.39.7-2.17.74-.4.07-.74.15-.73.7-.05.23-.18.43-.36.58-.22.2-.45.37-.7.52-.62.45-1.49.32-1.94-.3-.18-.25-.28-.55-.27-.86-.04-.28-.04-.56,0-.83.08-.34.21-.66.38-.96.08-.13.19-.25.31-.35.83-.68.95-1.91.27-2.75-.23-.28-.52-.48-.86-.6-.62-.38-1.32-.61-2.05-.69-.26-.04-.51-.13-.74-.27Z"/><path class="cls-17_network-1-39" d="M219.21,196.28c.34-.58.7-.75,1.28-.49.57.3,1.23.35,1.84.14l.09.1c-.08.13-.15.31-.27.37s-.6.13-.88.23c-.14.05-.24.16-.29.3,0,.08.14.25.24.29l3.47.98c.11.06.19.16.21.29,0,.15-.03.31-.08.45-.18.83,0,1.16.9,1.16.01.3-.19.56-.49.61-.55.15-1.16.31-1.65.5-.24.08-.51.16-.44.53,0,.07-.06.17-.12.23-.48.34-1.12.34-1.59,0-.3-.33-.27-.84.06-1.14.11-.1.25-.17.41-.2.32-.08.67-.1,1.01-.2.15-.03.28-.12.37-.25,0-.08-.1-.28-.21-.37-.85-.77-1.95-1.21-3.1-1.24-.64,0-1.27-.1-1.91-.17-.27,0-.61,0-.64-.4-.05-.31.16-.61.48-.66.05,0,.09,0,.14,0,.42-.02.83-.06,1.25-.13.17,0,.45-.16.47-.29.06-.3-.13-.5-.46-.5-.01-.14-.03-.14-.09-.14Z"/><path class="cls-17_network-1-39" d="M272.78,241.69c.4.94.45,1.99.14,2.97-.35.86-.55,1.78-.84,2.66-.1.26-.22.51-.37.75q-.44.81-1.33.65c-.71-.23-1.09-1-.86-1.71,0,0,0,0,0-.01.23-.29.42-.61.58-.95.09-.38.09-.78,0-1.16-.04-.54.28-1.04.79-1.24.13-.03.25-.09.35-.17.45-.45.89-.9,1.31-1.36.1-.13.18-.28.24-.43Z"/><path class="cls-17_network-1-39" d="M230.34,193.1c-.79.61-1.72,1.01-2.7,1.16-1.36.23-2.66.74-3.81,1.5-.38.23-.75.43-1.03-.15-.06-.1-.27-.16-.4-.18-.36-.04-.72-.1-1.07-.2.1-.1.22-.17.35-.23.3-.09.61-.15.91-.23s.72-.15.84-.6c.08-.19.25-.33.45-.38.6-.14,1.22-.22,1.85-.32.39,0,.78-.06,1.16-.16.68-.26,1.42-.37,2.15-.32.23.01.45.01.68,0h.66l-.02.13Z"/><path class="cls-17_network-1-39" d="M247.51,206.18c-.27-.4-.65-.59-.91-.42-.77.53-.83.67-.47,1.24l-1.53.58c-.12-.53.51-1.02,0-1.5.21-.36.61-.58,1.03-.57h.6c.32,0,.58-.13.53-.53-.01-.12.01-.25.07-.36.13-.18.27-.44.45-.47s.38.15.64.28c-.46.47-.27.74.14.95.1.05.18.12.24.21.11.33.25.64.44.92.28.22.59.4.92.53-.27.24-.56.47-.87.67-.29.18-.61.32-.94.4-.27.03-.54.03-.81,0v-.15l.57-.36c-.2-.24-.5-.45-.52-.68s.25-.46.42-.74Z"/><path class="cls-17_network-1-39" d="M240.56,200.9c.19-.09.39-.17.59-.24.61-.17,1.24-.34,1.86-.49.31-.07.65-.07.75.25s-.13.47-.29.58c-.36.24-.75.44-1.16.59-.37.19-.83.09-1.09-.24-.13-.16-.39-.2-.6-.3l-.07-.15Z"/><path class="cls-17_network-1-39" d="M222.78,209.53c.49-.7,1.18-1.24,1.99-1.54l-.4.36c.18.08.36.12.44.22s.46.47.42.62c-.08.33-.41.54-.74.47-.54-.09-1.1-.09-1.7-.14Z"/></g><path class="cls-6_network-1-39" d="M263.12,266.44l-.07.51c-21.02,12.63-48.29,5.83-60.92-15.18-12.63-21.02-5.83-48.29,15.18-60.92,4.79-2.88,10.08-4.83,15.59-5.74-3.14,2.59-6.02,5.48-8.6,8.63-.5.61-1.02,1.26-1.5,1.92s-.8,1.06-1.16,1.63-.58.84-.86,1.27c-1.05,1.6-1.99,3.27-2.83,4.99h0c-1.59,3.23-2.72,6.68-3.35,10.23-.93,5.42-.48,10.98,1.32,16.18.89,2.63,2.05,5.17,3.47,7.57,2.14,3.68,4.62,7.16,7.38,10.4,16.78,19.51,36.34,18.52,36.34,18.52Z"/><path class="cls-18_network-1-39 targetColor" d="M222.71,174.15c-1.95.04-3.55-1.51-3.59-3.46-.02-1.07.45-2.1,1.28-2.78,5.41-4.5,18.86-10.5,31.12-1.16,1.6,1.12,2,3.32.88,4.92-1.12,1.6-3.32,2-4.92.88-.08-.06-.17-.12-.24-.19-10.82-8.26-21.85.59-22.32.97-.62.51-1.39.8-2.2.81Z" style="fill: rgb(104, 225, 253);"/><path class="cls-18_network-1-39 targetColor" d="M214.33,162.77c-.94,0-1.84-.36-2.5-1.03-1.37-1.38-1.37-3.6,0-4.98.21-.2,20.58-20.26,46.65-1.61,1.6,1.13,1.97,3.34.84,4.94-1.13,1.6-3.34,1.97-4.94.84-21.1-15.08-36.87.18-37.53.84-.67.66-1.58,1.02-2.52.99Z" style="fill: rgb(104, 225, 253);"/><path class="cls-18_network-1-39 targetColor" d="M267.09,149.52c-.75,0-1.47-.24-2.08-.67-31.38-22.91-58.09-1.1-59.21-.15-1.53,1.22-3.75.96-4.97-.56-1.17-1.47-.99-3.6.42-4.84.31-.27,31.97-26.39,67.93-.15,1.57,1.16,1.9,3.38.74,4.95-.66.9-1.71,1.43-2.83,1.43h0Z" style="fill: rgb(104, 225, 253);"/></g></svg>