<svg id="_0546_summer_landscape" xmlns="http://www.w3.org/2000/svg" xmlns:xlink="http://www.w3.org/1999/xlink" viewBox="0 0 500 500" data-imageid="summer-landscape-84" imageName="Summer Landscape" class="illustrations_image" style="width: 151px;"><defs><style>.cls-1_summer-landscape-84{fill:url(#linear-gradient);}.cls-1_summer-landscape-84,.cls-2_summer-landscape-84,.cls-3_summer-landscape-84,.cls-4_summer-landscape-84,.cls-5_summer-landscape-84,.cls-6_summer-landscape-84,.cls-7_summer-landscape-84,.cls-8_summer-landscape-84,.cls-9_summer-landscape-84,.cls-10_summer-landscape-84,.cls-11_summer-landscape-84,.cls-12_summer-landscape-84,.cls-13_summer-landscape-84{stroke-width:0px;}.cls-2_summer-landscape-84{opacity:.18;}.cls-2_summer-landscape-84,.cls-3_summer-landscape-84,.cls-10_summer-landscape-84,.cls-13_summer-landscape-84{isolation:isolate;}.cls-2_summer-landscape-84,.cls-12_summer-landscape-84{fill:#68e1fd;}.cls-3_summer-landscape-84{fill:url(#linear-gradient-8-summer-landscape-84);}.cls-3_summer-landscape-84,.cls-13_summer-landscape-84{opacity:.49;}.cls-4_summer-landscape-84{fill:url(#linear-gradient-4-summer-landscape-84);}.cls-5_summer-landscape-84{fill:url(#linear-gradient-2-summer-landscape-84);}.cls-6_summer-landscape-84{fill:url(#linear-gradient-3-summer-landscape-84);}.cls-7_summer-landscape-84{fill:url(#linear-gradient-7-summer-landscape-84);}.cls-8_summer-landscape-84{fill:url(#linear-gradient-5-summer-landscape-84);}.cls-9_summer-landscape-84{fill:url(#linear-gradient-6-summer-landscape-84);}.cls-10_summer-landscape-84{opacity:.24;}.cls-10_summer-landscape-84,.cls-11_summer-landscape-84,.cls-13_summer-landscape-84{fill:#fff;}</style><linearGradient id="linear-gradient-summer-landscape-84" x1="366.3" y1="-63.5" x2="461" y2="95.77" gradientTransform="translate(-49.46 320.37)" gradientUnits="userSpaceOnUse"><stop offset="0" stop-color="#231f20"/><stop offset=".13" stop-color="#231f20" stop-opacity=".69"/><stop offset=".25" stop-color="#231f20" stop-opacity=".32"/><stop offset="1" stop-color="#231f20" stop-opacity="0"/></linearGradient><linearGradient id="linear-gradient-2-summer-landscape-84" x1="389.67" y1="-115.74" x2="376.4" y2="-74.84" xlink:href="#linear-gradient-summer-landscape-84"/><linearGradient id="linear-gradient-3-summer-landscape-84" x1="487.03" y1="-130.99" x2="456.18" y2="-72.15" xlink:href="#linear-gradient-summer-landscape-84"/><linearGradient id="linear-gradient-4-summer-landscape-84" x1="373.57" y1="-120.69" x2="420.45" y2="-47.03" xlink:href="#linear-gradient-summer-landscape-84"/><linearGradient id="linear-gradient-5-summer-landscape-84" x1="314.71" y1="-174.15" x2="404.63" y2="33.91" xlink:href="#linear-gradient-summer-landscape-84"/><linearGradient id="linear-gradient-6-summer-landscape-84" x1="413.97" y1="-217.05" x2="503.88" y2="-8.99" xlink:href="#linear-gradient-summer-landscape-84"/><linearGradient id="linear-gradient-7-summer-landscape-84" x1="371.84" y1="-198.86" x2="461.77" y2="9.21" xlink:href="#linear-gradient-summer-landscape-84"/><linearGradient id="linear-gradient-8-summer-landscape-84" x1="314.28" y1="-5.98" x2="292.28" y2="68.63" gradientTransform="translate(-49.46 320.37)" gradientUnits="userSpaceOnUse"><stop offset="0" stop-color="#fff"/><stop offset="1" stop-color="#fff"/></linearGradient></defs><g id="background_summer-landscape-84"><path class="cls-2_summer-landscape-84 targetColor" d="M489.54,344.59c-.48,3.99-1.34,7.93-2.55,11.76-6.55,20.82-22.93,38.9-42.24,50.12-22.33,13.03-41.13,18.53-60.39,18.53-9.8-.12-19.54-1.4-29.04-3.82-1.27-.29-2.55-.62-3.82-.96-3.21-.85-6.49-1.79-9.84-2.83l-4.18-1.31-2.06-.69c-2.76-.93-5.57-1.91-8.45-2.96l-4.31-1.45c-14.09-5.26-27.66-12.6-41.51-18.6-12.74-5.53-25.8-9.93-39.66-10.49-34.92-1.41-66.05,21.79-100.5,27.74-41.37,7.13-85.36-13.06-109.48-47.45-1.2-1.7-2.34-3.43-3.43-5.2-.33-.52-.65-1.06-.97-1.58-.85-1.41-1.67-2.83-2.45-4.27-.36-.65-.7-1.27-1.04-1.97s-.74-1.44-1.1-2.17l-.09-.18c-.37-.73-.71-1.45-1.06-2.19h0c-3.19-6.86-5.74-14-7.64-21.33-6.97-26.93-5.59-55.34,3.95-81.47.85-2.34,1.78-4.64,2.79-6.92,4.92-11.29,11.63-21.85,20.9-29.89,18.7-16.26,44.84-20.16,67.31-30.58,10.83-5.15,21.02-11.57,30.35-19.11,32.74-25.95,58.61-62.43,95.56-82.73,15.8-8.57,33.22-13.74,51.14-15.16,30.09-2.49,60.2,4.46,86.15,19.88,16.87,10.1,32.62,21.76,46.24,52.93,7.53,17.23,14.4,40.4,20.46,72.62.71,3.73,1.62,7.42,2.71,11.06,8.07,26.88,25.83,52.43,37.59,78.79,5.98,13.4,10.38,27.02,11.17,41.13.15,3.59-.02,7.18-.52,10.74Z" style="fill: rgb(104, 225, 253);"/><path class="cls-2_summer-landscape-84 targetColor" d="M489.54,344.59c-.48,3.99-1.34,7.93-2.55,11.76-6.55,20.82-22.93,38.9-42.24,50.12-22.33,13.03-41.13,18.53-60.39,18.53s-38.22-5.31-61.69-14.09c-14.09-5.26-27.66-12.6-41.51-18.6-12.74-5.53-25.8-9.93-39.66-10.49-34.92-1.41-66.05,21.79-100.5,27.74-41.37,7.13-85.36-13.06-109.48-47.45-3.9-5.54-7.31-11.42-10.19-17.56h0c-3.19-6.86-5.74-14-7.64-21.33,0,0,47.94-41.31,100.46-18.67,78.2,33.73,107.61-11.96,146.36-7.17,38.75,4.79,58.84,9.33,94.28,17.94,28.03,6.78,84.03-17.84,123.89-22.79,5.98,13.4,10.38,27.02,11.17,41.13.23,3.65.13,7.3-.31,10.93Z" style="fill: rgb(104, 225, 253);"/><circle class="cls-11_summer-landscape-84" cx="271.28" cy="126.58" r="30.13"/><path class="cls-13_summer-landscape-84" d="M262.24,218.66c-7.36-.57-15.17-1.06-21.75,2.31-2.55,1.27-4.74,3.1-7.26,4.37-5.1,2.55-11.15,2.78-16.92,2.9-18.16.38-38.16.06-51.79-11.93-5.14,9.99-15.7,15.99-26.91,15.29-1.07-.19-2.18-.13-3.22.17-1.24.71-2.25,1.77-2.89,3.05-7.39,11.03-23.94,14.61-35.23,7.64-6.7,6.87-16.23,10.04-25.37,12.98-3.03,1.07-6.14,1.86-9.31,2.37-8,.99-16.1-1.86-22.83-6.29-4.61-3.16-8.88-6.8-12.74-10.86-4.45-4.51-6.17-5.01-3.24-10.89,4.49-9.37,10.77-17.76,18.49-24.7,18.7-16.26,44.84-20.16,67.31-30.58,10.83-5.15,21.02-11.57,30.35-19.11,6.47,1.61,12.01,7.64,11.16,14.26,13.2-5.24,29.99,2.31,34.85,15.65,4.98-1.88,10.6-.62,14.3,3.21,1.77,1.9,3.06,4.41,5.4,5.54,1.7.64,3.51.92,5.33.83,10.41.39,20.54,4.19,29.38,9.57,7.39,4.34,13.48,13.51,22.91,14.23Z"/><path class="cls-13_summer-landscape-84" d="M441.16,213.78c-8.08,1.47-16.29,2.07-24.5,1.81-5.8-.19-12.47-1.38-15.29-6.37-13.38,4.19-27.98.46-37.71-9.63-.93,2.43-4.48,2.13-6.88,1.08-8.05-3.53-14.48-9.96-18.02-18-7.79,2.22-16.14,1.21-23.18-2.79-2.26-1.53-4.64-2.87-7.12-4-2.68-.81-5.47-1.2-8.27-1.15l-35.33-1.17c10.26-1.17,19.82-5.75,27.16-13.01,3.38-3.36,6.27-7.26,10.19-10.04,3.92-2.78,9.19-4.24,13.42-2.05.94-12.65,14.02-22.25,26.65-21.86,12.64.38,24.11,8.92,30.69,19.76-1.41-2.4,14.56-11.91,16.42-12.74,6.55-3.15,13.71-4.81,20.97-4.87,2.62-.02,5.22.49,7.64,1.48,7.53,17.23,14.4,40.4,20.46,72.62.7,3.69,1.6,7.34,2.68,10.93Z"/><path class="cls-12_summer-landscape-84 targetColor" d="M489.54,344.59c-.48,3.99-1.34,7.93-2.55,11.76-6.55,20.82-22.93,38.9-42.24,50.12-22.33,13.03-41.13,18.53-60.39,18.53-9.8-.12-19.54-1.4-29.04-3.82l-3.82-.96c-3.21-.85-6.49-1.79-9.84-2.83l-4.18-1.31-2.06-.69c-2.76-.93-5.57-1.91-8.45-2.96l-4.31-1.45c-14.09-5.26-27.66-12.6-41.51-18.6-12.74-5.53-25.8-9.93-39.66-10.49-34.92-1.41-66.05,21.79-100.5,27.74-41.37,7.13-85.36-13.06-109.48-47.45-1.2-1.7-2.34-3.43-3.43-5.2-.33-.52-.65-1.06-.97-1.58-.85-1.41-1.67-2.83-2.45-4.27-.36-.65-.7-1.27-1.04-1.97s-.74-1.44-1.1-2.17l-.09-.18c-.37-.73-.71-1.45-1.06-2.19h468.16v-.04Z" style="fill: rgb(104, 225, 253);"/><path class="cls-13_summer-landscape-84" d="M424.05,353.65c-1.76.61-3.52,1.2-5.27,1.77,1.75-.66,3.5-1.25,5.27-1.77Z"/><path class="cls-13_summer-landscape-84" d="M265.54,386.39c-9.25-.14-18.3-2.7-27.43-4.59h3.39c8.18.44,16.27,1.98,24.04,4.59Z"/><path class="cls-12_summer-landscape-84 targetColor" d="M183.58,155.99c3.46-.61,7.01.24,9.82,2.34.18.18.4.3.65.34.52,0,.9-.47,1.17-.93,2.34-3.92,6.37-7.33,10.89-7.26,2.29.19,4.52.8,6.57,1.81,1.99.62,3.76,1.8,5.1,3.4-2.24-.76-4.33-1.9-6.56-2.7-2.2-.91-4.63-1.12-6.96-.61-3.47.98-5.75,4.24-7.45,7.42l4.13.5c-1.12-.14-2.25.1-3.21.69l-9.94,4.77,5.1-3.82c.06-.04.1-.09.13-.15.02-.11-.03-.23-.14-.28-3.37-3.12-8.29-3.91-12.47-2-4.1,2-6.98,5.85-7.76,10.35,1.21-6.45,3.84-12.55,10.93-13.85Z" style="fill: rgb(104, 225, 253);"/><path class="cls-12_summer-landscape-84 targetColor" d="M147.87,186.27c3.45-.6,7,.25,9.81,2.34.19.17.41.29.66.34.52,0,.9-.47,1.17-.93,2.33-3.92,6.37-7.33,10.89-7.25,2.29.18,4.52.79,6.57,1.8,1.99.63,3.76,1.81,5.1,3.4-2.24-.76-4.33-1.9-6.56-2.7-2.2-.91-4.63-1.12-6.96-.61-3.47.99-5.75,4.24-7.45,7.42l4.13.5c-1.12-.14-2.25.1-3.21.69l-9.94,4.77,5.1-3.82s.11-.09.13-.15c.02-.11-.03-.22-.13-.28-3.37-3.12-8.29-3.91-12.47-2-4.1,2-6.98,5.85-7.76,10.35,1.2-6.45,3.81-12.55,10.92-13.85Z" style="fill: rgb(104, 225, 253);"/><path class="cls-12_summer-landscape-84 targetColor" d="M198.09,191.48c3.45-.61,7,.23,9.81,2.33.18.17.41.29.65.34.54.06.92-.47,1.18-.92,2.33-3.94,6.37-7.34,10.89-7.26,2.28.19,4.51.8,6.57,1.81,1.99.62,3.76,1.79,5.1,3.39-2.24-.76-4.34-1.9-6.56-2.69-2.2-.92-4.63-1.14-6.96-.61-3.47.98-5.75,4.23-7.45,7.4l4.12.5c-1.11-.14-2.25.1-3.2.7l-9.95,4.75,5.1-3.89c.06-.03.1-.09.13-.15.02-.11-.03-.22-.13-.28-3.38-3.12-8.3-3.91-12.49-1.99-4.09,2-6.98,5.85-7.75,10.35,1.26-6.4,3.81-12.5,10.93-13.79Z" style="fill: rgb(104, 225, 253);"/></g><g id="island_summer-landscape-84"><path class="cls-12_summer-landscape-84 targetColor" d="M486.98,356.35c-6.55,20.82-23,38.9-42.24,50.12-44.16,25.79-74.52,22.23-122.07,4.48-14.09-5.26-27.66-12.6-41.51-18.6-.37-3.62-.56-7.26-.56-10.89-.01-36.78,19.28-70.88,50.82-89.8,2.17-1.27,4.38-2.55,6.65-3.67,1.9-.97,3.84-1.88,5.8-2.73.99-.43,2-.85,3.02-1.27,8.25-3.26,16.89-5.45,25.7-6.51,4.23-.51,8.48-.76,12.74-.76,9.84-.01,19.62,1.36,29.07,4.09,2.64.76,5.24,1.61,7.78,2.55,32.29,12.19,56.52,39.49,64.79,72.99Z" style="fill: rgb(104, 225, 253);"/><path class="cls-1_summer-landscape-84" d="M486.98,356.35c-6.55,20.82-23,38.9-42.24,50.12-44.16,25.79-74.52,22.23-122.07,4.48-14.09-5.26-27.66-12.6-41.51-18.6-.37-3.62-.56-7.26-.56-10.89-.01-36.78,19.28-70.88,50.82-89.8,2.17-1.27,4.38-2.55,6.65-3.67,1.9-.97,3.84-1.88,5.8-2.73.99-.43,2-.85,3.02-1.27,8.25-3.26,16.89-5.45,25.7-6.51,4.23-.51,8.48-.76,12.74-.76,9.84-.01,19.62,1.36,29.07,4.09,2.64.76,5.24,1.61,7.78,2.55,32.29,12.19,56.52,39.49,64.79,72.99Z"/><path class="cls-12_summer-landscape-84 targetColor" d="M372.59,277.51c-3.48.42-6.93,1.01-10.35,1.78-3.75-12.58-11.19-31.64-25.13-48.91h0c-1.54-1.92-3.17-3.82-4.89-5.67-12.22-13.5-27.8-23.52-45.14-29.05,0,0,23.12.64,47.14,21.48,1.49,1.28,2.98,2.65,4.46,4.09,12.46,12.09,24.78,29.95,33.9,56.28Z" style="fill: rgb(104, 225, 253);"/><path class="cls-5_summer-landscape-84" d="M372.59,277.51c-3.48.42-6.93,1.01-10.35,1.78-3.75-12.58-11.19-31.64-25.13-48.91h0c-1.54-1.92-3.17-3.82-4.89-5.67-12.22-13.5-27.8-23.52-45.14-29.05,0,0,23.12.64,47.14,21.48,1.49,1.28,2.98,2.65,4.46,4.09,12.46,12.09,24.78,29.95,33.9,56.28Z"/><path class="cls-12_summer-landscape-84 targetColor" d="M422.17,283.43c-2.55-.97-5.14-1.82-7.78-2.55,3.96-28.03,7.15-73.6-9.53-93.77.69.23,26.35,11.45,17.32,96.32Z" style="fill: rgb(104, 225, 253);"/><path class="cls-6_summer-landscape-84" d="M422.17,283.43c-2.55-.97-5.14-1.82-7.78-2.55,3.96-28.03,7.15-73.6-9.53-93.77.69.23,26.35,11.45,17.32,96.32Z"/><path class="cls-12_summer-landscape-84 targetColor" d="M343.86,285.27c-1.96.85-3.89,1.76-5.8,2.73-8.92-26.62-9.24-47.47-5.85-63.3.57-2.68,1.27-5.21,2-7.64,7.17-22.72,21.52-32.78,22.12-33.13-8.6,10.93-14.63,23.65-17.65,37.22-.69,3.07-1.2,6.14-1.57,9.17h0c-2.6,21.16,1.86,40.87,6.74,54.95Z" style="fill: rgb(104, 225, 253);"/><path class="cls-4_summer-landscape-84" d="M343.86,285.27c-1.96.85-3.89,1.76-5.8,2.73-8.92-26.62-9.24-47.47-5.85-63.3.57-2.68,1.27-5.21,2-7.64,7.17-22.72,21.52-32.78,22.12-33.13-8.6,10.93-14.63,23.65-17.65,37.22-.69,3.07-1.2,6.14-1.57,9.17h0c-2.6,21.16,1.86,40.87,6.74,54.95Z"/><path class="cls-12_summer-landscape-84 targetColor" d="M291.25,211.36c.46,3.51,1.39,6.93,2.76,10.19,1.95,5.54,4.27,10.93,6.94,16.16-7.46-.29-13.98-5.13-16.41-12.19-1.75-5.4-.79-11.28.51-16.79.48-2.56,1.39-5.03,2.68-7.3-10.88,7.54-19.88,18.77-21.84,31.85-3.14-7.03-4.79-14.63-4.85-22.32-.31-2.93.73-5.84,2.84-7.9,4.36-5.1,10.5-9.15,17.16-8.83-9.2-4.77-18.63-9.06-28.26-12.88,4.19-1.63,8.5-3.3,13-3.36,6.37-.09,12.24,2.99,17.74,6.14,1.86,1.06,3.82,2.26,4.7,4.2,1.36-1.35.9-3.59.36-5.43l-3.94-13.1c2.43.93,4.77,2.08,6.98,3.44,1.31.74,2.48,1.7,3.45,2.85,2.55,3.36,1.82,8.21.31,12.18,2.53-2.72,6.17-4.13,9.87-3.82,3.65.36,7.17,1.52,10.32,3.4,3.19,1.75,6.37,3.99,7.8,7.3-7.29-2.51-14.93-3.85-22.64-3.95-2.26,0-4.73.15-6.37,1.73,5.58,1.9,10.77,4.82,15.29,8.6,4.52,3.82,7.57,9.11,8.6,14.95-.13-.92-3.02-2.82-3.82-3.5-1.38-1.27-2.78-2.47-4.22-3.64-2.81-2.35-5.86-4.39-9.1-6.12-1.83-.96-7.38-4.1-9.4-2.69-1.45,1.12-.61,8.96-.46,10.83Z" style="fill: rgb(104, 225, 253);"/><path class="cls-12_summer-landscape-84 targetColor" d="M404.52,198.27c-.34,2.94-.27,5.92.2,8.84.45,4.94,1.24,9.84,2.36,14.66-6.02-1.77-10.34-7.04-10.91-13.29-.33-4.75,1.63-9.35,3.82-13.59.91-2,2.14-3.83,3.66-5.41-10.41,3.94-20.03,11.28-24.28,21.57-1.16-6.39-.98-12.96.54-19.28.22-1.22.65-2.39,1.27-3.47.69-.95,1.56-1.77,2.55-2.41,4.57-3.22,10.42-5.34,15.79-3.73-6.52-5.74-13.32-11.16-20.39-16.24,3.75-.48,7.64-.97,11.29-.11,5.19,1.27,9.38,4.93,13.23,8.61,1.43,1.12,2.47,2.66,2.99,4.4,1.38-.83,1.47-2.75,1.39-4.36l-.55-11.47c1.83,1.26,3.54,2.69,5.1,4.27.92.87,1.68,1.89,2.24,3.03,1.44,3.27-.18,7.07-2.22,10,2.62-1.69,5.88-2.08,8.83-1.07,2.93,1.02,5.59,2.67,7.8,4.84,2.24,2.06,4.34,4.54,4.87,7.54-5.42-3.53-11.36-6.17-17.61-7.82-1.82-.47-3.89-.84-5.5.14,4.16,2.68,7.79,6.11,10.69,10.12,2.91,4.04,4.32,8.97,3.99,13.94.08-.78-1.9-2.92-2.38-3.63-.87-1.27-1.76-2.55-2.7-3.82-1.82-2.49-3.89-4.78-6.18-6.84-1.27-1.15-5.2-4.84-7.13-4.1-1.57.56-2.48,7.12-2.74,8.69Z" style="fill: rgb(104, 225, 253);"/><path class="cls-12_summer-landscape-84 targetColor" d="M322.11,187.63c7.73.02,15.46-.41,23.14-1.27-4.51,8.44-5.52,18.32-2.8,27.5,2.98-3.71,3.05-8.92,4.28-13.47.96-3.62,2.7-6.99,5.1-9.87.45,4.04,1.5,7.98,3.12,11.71,2.42,5.58,6.17,10.89,6.28,16.97,5.06-10.21,3.96-22.39-2.85-31.52,8.05,2.55,15.04,7.67,19.89,14.58,2.16-10.02-4.21-19.88-14.23-22.04,0,0,0,0,0,0-.62-.14-1.25-.24-1.89-.31,3.3-3.04,7.04-5.56,11.08-7.49-2.95-1.76-6.29-2.76-9.72-2.93-3.41,0-7.01,1.78-8.31,4.94-.54-4.24-.47-8.53.22-12.74-3.39,1.87-7.07,4.08-8.26,7.77-.79,2.43,1.27,6.85-.29,8.7-1.57,1.85-6.15.65-8.21.94-6.34.83-12.2,3.85-16.55,8.54Z" style="fill: rgb(104, 225, 253);"/><path class="cls-8_summer-landscape-84" d="M291.25,211.36c.46,3.51,1.39,6.93,2.76,10.19,1.95,5.54,4.27,10.93,6.94,16.16-7.46-.29-13.98-5.13-16.41-12.19-1.75-5.4-.79-11.28.51-16.79.48-2.56,1.39-5.03,2.68-7.3-10.88,7.54-19.88,18.77-21.84,31.85-3.14-7.03-4.79-14.63-4.85-22.32-.31-2.93.73-5.84,2.84-7.9,4.36-5.1,10.5-9.15,17.16-8.83-9.2-4.77-18.63-9.06-28.26-12.88,4.19-1.63,8.5-3.3,13-3.36,6.37-.09,12.24,2.99,17.74,6.14,1.86,1.06,3.82,2.26,4.7,4.2,1.36-1.35.9-3.59.36-5.43l-3.94-13.1c2.43.93,4.77,2.08,6.98,3.44,1.31.74,2.48,1.7,3.45,2.85,2.55,3.36,1.82,8.21.31,12.18,2.53-2.72,6.17-4.13,9.87-3.82,3.65.36,7.17,1.52,10.32,3.4,3.19,1.75,6.37,3.99,7.8,7.3-7.29-2.51-14.93-3.85-22.64-3.95-2.26,0-4.73.15-6.37,1.73,5.58,1.9,10.77,4.82,15.29,8.6,4.52,3.82,7.57,9.11,8.6,14.95-.13-.92-3.02-2.82-3.82-3.5-1.38-1.27-2.78-2.47-4.22-3.64-2.81-2.35-5.86-4.39-9.1-6.12-1.83-.96-7.38-4.1-9.4-2.69-1.45,1.12-.61,8.96-.46,10.83Z"/><path class="cls-9_summer-landscape-84" d="M404.52,198.27c-.34,2.94-.27,5.92.2,8.84.45,4.94,1.24,9.84,2.36,14.66-6.02-1.77-10.34-7.04-10.91-13.29-.33-4.75,1.63-9.35,3.82-13.59.91-2,2.14-3.83,3.66-5.41-10.41,3.94-20.03,11.28-24.28,21.57-1.16-6.39-.98-12.96.54-19.28.22-1.22.65-2.39,1.27-3.47.69-.95,1.56-1.77,2.55-2.41,4.57-3.22,10.42-5.34,15.79-3.73-6.52-5.74-13.32-11.16-20.39-16.24,3.75-.48,7.64-.97,11.29-.11,5.19,1.27,9.38,4.93,13.23,8.61,1.43,1.12,2.47,2.66,2.99,4.4,1.38-.83,1.47-2.75,1.39-4.36l-.55-11.47c1.83,1.26,3.54,2.69,5.1,4.27.92.87,1.68,1.89,2.24,3.03,1.44,3.27-.18,7.07-2.22,10,2.62-1.69,5.88-2.08,8.83-1.07,2.93,1.02,5.59,2.67,7.8,4.84,2.24,2.06,4.34,4.54,4.87,7.54-5.42-3.53-11.36-6.17-17.61-7.82-1.82-.47-3.89-.84-5.5.14,4.16,2.68,7.79,6.11,10.69,10.12,2.91,4.04,4.32,8.97,3.99,13.94.08-.78-1.9-2.92-2.38-3.63-.87-1.27-1.76-2.55-2.7-3.82-1.82-2.49-3.89-4.78-6.18-6.84-1.27-1.15-5.2-4.84-7.13-4.1-1.57.56-2.48,7.12-2.74,8.69Z"/><path class="cls-7_summer-landscape-84" d="M322.11,187.63c7.73.02,15.46-.41,23.14-1.27-4.51,8.44-5.52,18.32-2.8,27.5,2.98-3.71,3.05-8.92,4.28-13.47.96-3.62,2.7-6.99,5.1-9.87.45,4.04,1.5,7.98,3.12,11.71,2.42,5.58,6.17,10.89,6.28,16.97,5.06-10.21,3.96-22.39-2.85-31.52,8.05,2.55,15.04,7.67,19.89,14.58,2.16-10.02-4.21-19.88-14.23-22.04,0,0,0,0,0,0-.62-.14-1.25-.24-1.89-.31,3.3-3.04,7.04-5.56,11.08-7.49-2.95-1.76-6.29-2.76-9.72-2.93-3.41,0-7.01,1.78-8.31,4.94-.54-4.24-.47-8.53.22-12.74-3.39,1.87-7.07,4.08-8.26,7.77-.79,2.43,1.27,6.85-.29,8.7-1.57,1.85-6.15.65-8.21.94-6.34.83-12.2,3.85-16.55,8.54Z"/></g><g id="sea_summer-landscape-84"><path class="cls-3_summer-landscape-84" d="M489.54,344.59c-.48,3.99-1.34,7.93-2.55,11.76-1.72,5.43-4.05,10.64-6.96,15.54-.85,1.47-1.75,2.91-2.71,4.32-8.45,12.4-19.58,22.74-32.57,30.26-22.33,13.03-41.13,18.53-60.39,18.53-9.8-.12-19.54-1.4-29.04-3.82l-3.82-.96c-3.21-.85-6.49-1.79-9.84-2.83l-4.18-1.31-2.06-.69c-2.76-.93-5.57-1.91-8.45-2.96l-4.31-1.45c-13.67-5.1-26.85-12.15-40.26-18.05l-.45-.19-.8-.36c-5.1-2.26-10.31-4.25-15.62-5.96-7.77-2.58-15.86-4.11-24.04-4.52h-3.39c-33.55.13-63.78,22.04-97.11,27.8-33.98,5.77-69.8-6.82-94.82-30.58-5.45-5.15-10.36-10.83-14.66-16.97l-1.27-1.83c-.76-1.11-1.48-2.23-2.18-3.36-.33-.52-.65-1.06-.97-1.58-.85-1.41-1.67-2.83-2.45-4.27-.36-.65-.7-1.27-1.04-1.97s-.74-1.44-1.1-2.17l-.09-.18c-.37-.73-.71-1.45-1.06-2.19h468.18Z"/><path class="cls-10_summer-landscape-84" d="M480.02,371.9c-.85,1.47-1.75,2.91-2.71,4.32-3.95-.32-7.89-.61-11.76-.82-22.36-1.15-44.72,1.44-66.95,4.03l-116.19,13.48-.45-.19,31.85-11.54c-15.45-2.78-30.87,4.94-46.58,5.22h-1.73c-7.77-2.58-15.86-4.11-24.04-4.52h-3.35c-2.76-.57-5.53-1.08-8.32-1.44-10.94-1.43-22.04-.56-33.05.31l-126.33,9.86c8.08-3.66,16.24-7.38,23.15-12.93-15.79-1.65-31.73-1.16-47.38,1.47-5.45-5.15-10.36-10.83-14.66-16.97l-1.27-1.83c10.58-.22,22.14,1.27,30.58,1.2,33.87-.2,67.74.03,101.61.69l-28.51,8.79c52.35,11.67,107.34-3.24,160.4,4.51l-7.44-7.64c44.36.55,89.77.96,131.92-12.54-8.84,3.17-17.31,7.31-25.24,12.33,6.1,7.58,17.38,7.75,27.1,7.25l59.37-3.02Z"/></g></svg>